<?xml version="1.0" encoding="UTF-8"?> <svg xmlns="http://www.w3.org/2000/svg" id="Layer_1" data-name="Layer 1" viewBox="0 0 70 70"><defs><style> .cls-1 { fill: #8e3999; } .cls-2 { fill: none; stroke: #8e3999; stroke-miterlimit: 10; stroke-width: 2px; } </style></defs><rect class="cls-2" x="8.53" y="12.81" width="52.74" height="38.29" rx="3.14" ry="3.14"></rect><path class="cls-1" d="m14.08,39.53c-.55,0-1-.48-1-1.06v-8.4c0-.59.45-1.06,1-1.06h4.29c.55,0,1,.48,1,1.06v8.4c0,.59-.45,1.06-1,1.06h-4.29Zm.4-1.4h3.49v-7.73h-3.49v7.73Z"></path><path class="cls-1" d="m22.55,39.53c-.55,0-1-.48-1-1.06v-12.21c0-.59.45-1.07,1-1.07h4.29c.55,0,1,.48,1,1.07v12.21c0,.59-.45,1.06-1,1.06h-4.29Zm.4-1.4h3.49v-11.54h-3.49v11.54Z"></path><path class="cls-1" d="m31.51,39.53c-.76,0-1.37-.62-1.37-1.37v-14.19h-3.8l7.7-7.05,7.73,7.05h-4.27v14.19c0,.76-.61,1.37-1.37,1.37h-4.63Zm.03-1.4h4.57v-15.56h2.05l-4.12-3.75-4.1,3.75h1.6v15.56Z"></path><polyline class="cls-2" points="29.98 51.09 29.98 58.78 40.33 58.78 40.33 51.09"></polyline><path class="cls-1" d="m44.54,59.53h-18.79c-.46,0-.83-.34-.83-.75h0c0-.41.37-.75.83-.75h18.79c.46,0,.83.34.83.75h0c0,.41-.37.75-.83.75Z"></path><line class="cls-2" x1="8.53" y1="44.18" x2="61.27" y2="44.18"></line><rect class="cls-1" x="43.14" y="19.86" width="13.63" height="1.5" rx=".75" ry=".75"></rect><rect class="cls-1" x="43.14" y="25.14" width="13.63" height="1.5" rx=".75" ry=".75"></rect><rect class="cls-1" x="43.14" y="30.43" width="13.63" height="1.5" rx=".75" ry=".75"></rect><rect class="cls-1" x="43.14" y="35.71" width="13.63" height="1.5" rx=".75" ry=".75"></rect></svg> 