<?xml version="1.0" encoding="UTF-8"?> <svg xmlns="http://www.w3.org/2000/svg" id="Layer_1" data-name="Layer 1" viewBox="0 0 70 70"><defs><style> .cls-1 { fill: #8e3999; } </style></defs><path class="cls-1" d="m52.85,28.66h-1.28c-.05-.33-.13-.64-.24-.94-.2-.56-.51-1.07-.92-1.5-.66-.69-1.48-1.11-2.21-1.44-.29-.13-.58-.25-.86-.36-.42-.18-.81-.34-1.13-.5-.43-.22-.69-.46-.8-.67-.04-.52-.06-.98-.05-1.42.03-.03.08-.07.12-.12.12-.17.23-.38.36-.66.17-.37.3-.8.38-1.25.02,0,.03-.01.05-.01.1-.04.22-.09.32-.23.26-.35.42-.8.5-1.42.05-.39.01-.76-.12-1.06-.02-.07-.07-.13-.13-.18l.03-.05c.12-.28.25-.57.28-.95.06-.63,0-1.34-.17-2.01-.2-.79-.55-1.44-1.04-1.9-.41-.41-.98-.67-1.68-.79l-.22-.51c-.13-.3-.43-.5-.77-.5-.98,0-1.86.11-2.62.32-.24-.51-.55-.94-.92-1.3-.54-.53-1.31-.86-2.22-.99l-.33-.76c-.13-.31-.42-.5-.76-.51-2.77,0-5.06,1.07-6.27,2.92-.15.22-.28.46-.4.73-.15-.25-.41-.4-.71-.41-2.18,0-3.99.86-4.96,2.35-.77,1.18-.92,2.75-.4,4.3-.04.04-.09.09-.12.16-.15.34-.21.72-.16,1.14.08.62.24,1.07.5,1.43.1.13.23.17.33.21.02.01.04.02.06.02.11.53.25.96.42,1.31.12.25.25.46.38.66.03.04.07.07.13.13,0,.45-.02.87-.05,1.35-.1.26-.37.49-.83.73-.33.16-.72.32-1.15.5-.28.11-.57.23-.87.36-.78.36-1.6.77-2.24,1.44-.4.42-.7.9-.9,1.44-.12.29-.21.61-.25.94h-1.77c-.64,0-1.25.16-1.77.46-.68.4-1.11.99-1.22,1.65-.09.61.1,1.21.55,1.71l13.8,15.46v14.47c0,.21.14.41.38.53.13.07.28.11.43.11.13,0,.26-.03.37-.08l11.07-4.47c.28-.11.45-.33.45-.57l.02-9.68,14.06-15.78c.36-.4.55-.9.55-1.4,0-1.33-1.35-2.41-3-2.41Zm-12.8-9.72s.06-.03.09-.04c.13-.04.3-.1.42-.26.3-.4.5-.95.62-1.67l.02-.02v-.07c.05-.45-.01-.87-.17-1.28-.03-.07-.08-.12-.14-.15.19-.41.3-.87.36-1.38.06-.65.04-1.3-.07-1.94.42-.09.94-.15,1.56-.18l.14.31c.13.31.43.52.77.53.48,0,.81.13,1.1.41.26.26.47.65.59,1.12.12.45.16.96.12,1.41-.04.43-.19.76-.22.8-.15.19-.21.42-.16.69.04.21.16.39.32.51.01.04.01.11,0,.19-.04.33-.1.5-.14.58-.34.09-.6.39-.63.75-.02.27-.15.69-.33,1.08-.07.17-.16.3-.22.39l-.05.1c-.23.15-.36.41-.37.69v.17c-.01.62-.01,1.16.07,1.87.01.06.02.13.04.19.33.91,1.11,1.4,1.66,1.69.4.21.83.38,1.25.55.28.11.56.22.84.34.74.33,1.28.69,1.67,1.09.14.14.25.3.34.48.08.13.14.27.19.41h-3.42c-.15-.22-.31-.43-.49-.63-.05-.07-.11-.13-.17-.19-.87-.89-1.92-1.42-2.84-1.81-.4-.17-.8-.33-1.19-.48-.54-.22-1.04-.41-1.47-.62-.65-.33-1.05-.67-1.2-.99-.04-.74-.06-1.3-.06-1.95.01-.01.02-.01.03-.02.06-.05.12-.1.18-.17.14-.2.33-.48.48-.81.21-.45.36-.99.48-1.69Zm-19.04,8.95c.09-.16.19-.3.31-.42.37-.39.91-.73,1.69-1.09.27-.12.54-.22.81-.33.43-.17.87-.35,1.28-.56.56-.29,1.35-.77,1.67-1.66.03-.07.05-.15.06-.24.07-.83.09-1.38.09-2,0-.3-.15-.57-.37-.71-.02-.02-.05-.06-.08-.09-.07-.1-.16-.25-.24-.42-.18-.37-.33-.82-.37-1.17-.05-.35-.3-.62-.64-.7-.03-.08-.09-.25-.13-.58-.01-.09,0-.15.01-.19.3-.24.4-.67.24-1.01-.5-1.12-.43-2.33.16-3.25.57-.87,1.62-1.38,3.06-1.5l.18.34c.09.2.25.35.45.43-.05.87.08,1.79.39,2.67-.29.44-.41.92-.36,1.47.1.95.47,1.63,1.13,2.06.12.63.31,1.25.55,1.73.15.3.32.57.51.81.04.07.1.11.2.18,0,.65-.02,1.23-.05,1.85-.16.39-.56.73-1.21,1.06-.43.21-.93.4-1.47.62-.39.15-.79.31-1.19.48-.92.4-1.98.92-2.84,1.81-.06.06-.12.12-.15.17-.22.23-.4.46-.55.71h-3.35c.06-.18.13-.33.21-.47Zm5.94.07c.38-.26.84-.5,1.42-.75.35-.15.7-.29,1.06-.43.56-.22,1.15-.44,1.68-.71.76-.37,1.68-.93,2.07-1.98.03-.07.05-.15.06-.24.06-.94.06-1.67.06-2.52,0-.33-.17-.62-.42-.75l-.07-.06-.05-.06c-.1-.13-.23-.33-.35-.56-.24-.47-.42-1.05-.46-1.51-.04-.37-.33-.67-.71-.74-.11-.02-.26-.27-.32-.93-.03-.31.06-.43.09-.46.33-.23.46-.67.29-1.04-.38-.88-.52-1.81-.39-2.69.15-.2.21-.45.15-.68.13-.38.29-.72.49-1.03.82-1.25,2.35-2,4.32-2.13l.28.63c.14.3.44.5.77.5.69,0,1.2.19,1.65.61.38.37.68.91.85,1.57.16.61.22,1.31.16,1.91-.06.56-.26,1.01-.35,1.13-.16.2-.22.47-.16.72.07.23.21.42.41.54.02.07.04.21.04.41-.08.47-.22.78-.27.92-.4.04-.72.34-.77.74-.05.45-.22,1.06-.44,1.54-.11.23-.24.42-.33.55-.04.05-.07.09-.1.11v.02c-.27.15-.43.43-.43.74,0,.85,0,1.52.07,2.5,0,.09.02.18.05.25.4,1.06,1.32,1.62,2.08,1.99.53.27,1.12.49,1.68.71.35.14.71.28,1.06.43.55.24,1.03.49,1.43.75.33.21.63.45.87.7h-18.35c.24-.25.53-.48.88-.7Zm27.01,3.77l-14.23,15.99c-.09.11-.14.24-.14.36v9.47l-9.45,3.82v-13.66c0-.13-.05-.26-.14-.37l-13.95-15.61c-.17-.19-.26-.42-.26-.64,0-.27.11-.52.3-.72.27-.27.65-.42,1.07-.43h35.69c.26,0,.54.07.77.2.31.18.52.46.58.77.05.29-.03.58-.24.82Z"></path></svg> 