<?xml version="1.0" encoding="UTF-8"?> <svg xmlns="http://www.w3.org/2000/svg" id="Layer_1" data-name="Layer 1" viewBox="0 0 70 70"><defs><style> .cls-1, .cls-2 { fill: #8e3999; } .cls-2 { fill-rule: evenodd; } </style></defs><path class="cls-1" d="m22.9,60.01c-1.28,0-2.32-1.04-2.32-2.32v-4.33h-4.34c-1.28,0-2.32-1.04-2.32-2.32V12.31c0-1.28,1.04-2.32,2.32-2.32h30.86c.62,0,1.2.24,1.64.68s.68,1.02.68,1.64v4.33h4.34c1.28,0,2.32,1.04,2.32,2.32v29.04c0,1.31-.78,3.11-1.73,4l-6.76,6.36c-.96.9-2.8,1.63-4.11,1.63h-20.57Zm0-41.75c-.38,0-.7.32-.7.7v38.72c0,.38.32.71.7.71h20.57c.19,0,.4-.03.62-.08l.08-.02v-6.36c0-1.78,1.45-3.22,3.23-3.23h6.95l.02-.08c.06-.25.08-.46.08-.63v-29.04c0-.38-.32-.7-.7-.7h-30.86Zm24.5,32.07c-.43,0-.83.17-1.14.47-.31.31-.47.71-.47,1.14v5.74l.15-.09c.22-.13.4-.27.53-.39l6.76-6.36c.1-.1.2-.22.3-.35l.12-.16h-6.25ZM16.24,11.61c-.38,0-.71.32-.71.7v38.72c0,.38.32.71.71.71h4.33V18.97c0-1.28,1.04-2.32,2.32-2.32h24.91v-4.33c0-.38-.32-.7-.7-.7h-30.86Z"></path><path class="cls-1" d="m47.1,43.15h-17.55c-.5,0-.91.41-.91.91s.41.91.91.91h17.55c.5,0,.91-.41.91-.91,0-.5-.41-.91-.91-.91Z"></path><path class="cls-1" d="m39.24,49.2h-9.68c-.5,0-.91.41-.91.91s.41.91.91.91h9.68c.5,0,.91-.41.91-.91s-.41-.91-.91-.91Z"></path><path class="cls-1" d="m47.1,37.09h-17.55c-.5,0-.91.41-.91.91s.41.91.91.91h17.55c.5,0,.91-.41.91-.91s-.41-.91-.91-.91Z"></path><g><path class="cls-2" d="m39.42,27.92l-.47-.09v-2.04c.45.11.82.44.98.89.08.25.35.38.6.3.25-.08.38-.35.3-.6-.28-.85-1.02-1.44-1.88-1.57v-.4c0-.26-.21-.48-.48-.48s-.48.21-.48.48v.38c-.94.03-1.74.72-1.9,1.66-.16.96.47,1.88,1.43,2.07l.47.09v2.04c-.45-.11-.82-.44-.98-.89-.08-.25-.35-.38-.6-.3-.25.08-.38.35-.3.6.28.85,1.02,1.44,1.88,1.57v.4c0,.26.21.48.48.48s.48-.21.48-.48v-.38c.94-.03,1.74-.72,1.9-1.66.16-.96-.47-1.88-1.43-2.07Zm-1.71-.34c-.45-.09-.75-.52-.67-.98.08-.48.48-.83.96-.86v1.89l-.28-.06Zm1.24,3.11v-1.89l.28.06c.45.09.75.52.67.98-.08.48-.48.83-.96.86Z"></path><path class="cls-2" d="m38.48,22.03c-3.42,0-6.19,2.77-6.19,6.19s2.77,6.19,6.19,6.19,6.19-2.77,6.19-6.19-2.77-6.19-6.19-6.19Zm0,11.42c-2.89,0-5.24-2.34-5.24-5.24s2.34-5.24,5.24-5.24,5.24,2.34,5.24,5.24-2.34,5.24-5.24,5.24Z"></path></g></svg> 