<?xml version="1.0" encoding="UTF-8"?> <svg xmlns="http://www.w3.org/2000/svg" id="Layer_1" data-name="Layer 1" viewBox="0 0 70 70"><defs><style> .cls-1 { fill: #8e3999; } </style></defs><path class="cls-1" d="m59.91,32.17v5.65c0,1.43-1.17,2.6-2.6,2.6h-3.82c-.39,1.32-.92,2.6-1.58,3.81l2.7,2.7c1.01,1.01,1.01,2.66,0,3.67l-4,4s-.05.05-.07.07c-.15.14-.34.21-.53.21-.21,0-.42-.08-.57-.25-.29-.32-.27-.81.04-1.1,0,0,.02-.02.03-.03l4-4c.41-.41.41-1.07,0-1.47l-3.12-3.12c-.25-.25-.3-.64-.12-.95.83-1.42,1.47-2.94,1.88-4.52.09-.34.4-.58.75-.58h4.41c.57,0,1.04-.47,1.04-1.04v-5.65c0-.57-.47-1.04-1.04-1.04h-4.41c-.35,0-.66-.24-.75-.58-.41-1.58-1.04-3.11-1.88-4.52-.18-.31-.13-.69.12-.95l3.12-3.12c.41-.41.41-1.07,0-1.47l-4-4c-.2-.2-.46-.3-.74-.3s-.54.11-.74.3l-3.12,3.12c-.25.25-.64.3-.95.12-1.42-.83-2.94-1.47-4.52-1.88-.34-.09-.58-.4-.58-.75v-4.41c0-.57-.47-1.04-1.04-1.04h-5.65c-.57,0-1.04.47-1.04,1.04v4.41c0,.35-.24.66-.58.75-1.58.41-3.11,1.04-4.52,1.88-.31.18-.69.13-.95-.12l-3.12-3.12c-.2-.2-.46-.3-.74-.3s-.54.11-.74.3l-4,4c-.41.41-.41,1.07,0,1.47l3.12,3.12c.25.25.3.64.12.95-.83,1.42-1.47,2.94-1.88,4.52-.09.34-.4.58-.75.58h-4.41c-.57,0-1.04.47-1.04,1.04v5.65c0,.57.47,1.04,1.04,1.04h4.41c.35,0,.66.24.75.58.41,1.58,1.04,3.11,1.88,4.52.18.31.13.69-.12.95l-3.12,3.12c-.41.41-.41,1.07,0,1.47l4,4s.02.02.03.03c.32.29.33.78.04,1.1-.29.32-.78.33-1.1.04-.02-.02-.05-.05-.07-.07l-4-4c-1.01-1.01-1.01-2.66,0-3.67l2.7-2.7c-.66-1.21-1.19-2.49-1.58-3.81h-3.82c-1.43,0-2.6-1.17-2.6-2.6v-5.65c0-1.43,1.17-2.6,2.6-2.6h3.82c.39-1.32.92-2.6,1.58-3.81l-2.7-2.7c-1.01-1.01-1.01-2.66,0-3.67l4-4c.49-.49,1.14-.76,1.84-.76s1.35.27,1.84.76l2.7,2.7c1.21-.66,2.49-1.19,3.81-1.58v-3.82c0-1.43,1.16-2.6,2.6-2.6h5.65c1.43,0,2.6,1.17,2.6,2.6v3.82c1.32.39,2.6.92,3.81,1.58l2.7-2.7c.49-.49,1.14-.76,1.84-.76s1.35.27,1.84.76l4,4c1.01,1.01,1.01,2.66,0,3.67l-2.7,2.7c.66,1.21,1.19,2.49,1.58,3.81h3.82c1.43,0,2.6,1.16,2.6,2.6h0Zm-15.43,10.94c.14.11.3.16.47.16.24,0,.47-.11.62-.31,1.74-2.31,2.66-5.06,2.66-7.96,0-7.3-5.94-13.23-13.23-13.23s-13.23,5.94-13.23,13.23c0,2.9.92,5.65,2.66,7.96.26.34.75.41,1.09.15.34-.26.41-.75.15-1.09-1.54-2.04-2.35-4.47-2.35-7.03,0-6.44,5.24-11.67,11.67-11.67s11.67,5.24,11.67,11.67c0,2.56-.81,4.99-2.35,7.03-.26.34-.19.83.15,1.09Zm1.57,2.5c1.42,1.54,2.2,3.54,2.2,5.62v7.89c0,.43-.35.78-.78.78h-24.93c-.43,0-.78-.35-.78-.78v-7.89c0-2.08.78-4.08,2.2-5.62,1.41-1.53,3.31-2.48,5.37-2.66.35-.03.68.17.8.5l1.42,3.78,1.05,2.77.55-2.92-1.63-3.01c-.13-.24-.12-.53.02-.77.14-.24.39-.38.67-.38h5.61c.27,0,.53.14.67.38.14.24.15.53.02.77l-1.63,3.01.55,2.92,1.06-2.77,1.41-3.78c.12-.33.45-.53.8-.5,2.05.19,3.96,1.13,5.37,2.66h0Zm-11.94,12.73l-4.02-10.56-1.2-3.2c-3.16.57-5.57,3.39-5.57,6.65v7.11h10.79Zm.9-2.02l1.35-3.54-1.07-5.69c-.03-.18,0-.36.08-.52l1.14-2.11h-3l1.14,2.11c.09.16.11.34.08.52l-1.07,5.69,1.35,3.54Zm11.68-5.09c0-3.26-2.4-6.08-5.57-6.65l-1.2,3.2-4.02,10.56h10.79v-7.11Zm-11.68-23.31c3.95,0,7.17,3.22,7.17,7.17s-3.22,7.17-7.17,7.17-7.17-3.22-7.17-7.17,3.22-7.17,7.17-7.17h0Zm0,1.56c-3.1,0-5.62,2.52-5.62,5.62s2.52,5.62,5.62,5.62,5.62-2.52,5.62-5.62-2.52-5.62-5.62-5.62h0Z"></path></svg> 