<?xml version="1.0" encoding="UTF-8"?> <svg xmlns="http://www.w3.org/2000/svg" id="Layer_1" data-name="Layer 1" viewBox="0 0 70 70"><defs><style> .cls-1 { fill: #8e3999; } </style></defs><path class="cls-1" d="m49.33,14.81s.05,0,.07,0c.04,0,.08,0,.12,0,1.06.02,1.9.88,1.91,1.94,0,.48.39.87.87.87s.87-.39.87-.87c0-1.73-1.21-3.23-2.9-3.6v-.84c0-.48-.39-.87-.87-.87s-.87.39-.87.87v.88c-1.79.48-2.94,2.21-2.7,4.04s1.8,3.21,3.65,3.21c1.07,0,1.94.87,1.94,1.95s-.87,1.94-1.94,1.94-1.94-.87-1.94-1.94c0-.48-.39-.87-.87-.87s-.87.39-.87.87c0,1.67,1.12,3.13,2.73,3.56v.95c0,.48.39.87.87.87s.87-.39.87-.87v-.91c1.84-.4,3.08-2.13,2.88-4-.2-1.87-1.78-3.29-3.66-3.29-1.04,0-1.9-.82-1.94-1.87-.04-1.04.75-1.93,1.79-2.01h0Z"></path><path class="cls-1" d="m49.54,7.19c-5.36,0-9.93,3.49-11.64,8.17h-21.61c-.48,0-.87.43-.87.91l-.21,30.54h-6.16c-.48,0-.89.35-.89.83v3.88c.01,3.65,2.88,6.65,6.53,6.81v.02h26.88v-.03c.22,0,.31.03.45.03h.02c3.77,0,6.83-3.07,6.83-6.84v-19.59c.22.01.45.02.67.02,6.82,0,12.36-5.56,12.36-12.37s-5.54-12.37-12.36-12.37ZM15.02,56.6h0c-2.82,0-5.1-2.28-5.11-5.1v-2.96h25.25v2.94c0,1.82.73,3.56,2.02,4.84.09.09.2.16.3.27H15.02Zm32.1-5.1c0,2.81-2.28,5.09-5.09,5.1h-.02c-2.82,0-5.11-2.29-5.13-5.11v-3.86c0-.22-.08-.44-.24-.6s-.37-.24-.6-.23h-19.1l.2-29.71h20.26c-.15.8-.23,1.61-.24,2.42,0,1.72.36,3.41,1.05,4.98h-8.22c-.48,0-.87.39-.87.87s.39.87.87.87h9.17c1.8,2.82,4.67,4.79,7.95,5.45v19.81Zm2.42-21.32c-5.86,0-10.62-4.75-10.62-10.62,0-5.86,4.75-10.62,10.62-10.62s10.62,4.75,10.62,10.62c0,5.86-4.76,10.61-10.62,10.62Z"></path><path class="cls-1" d="m24.42,30.29c-1.54,0-2.79,1.21-2.79,2.7s1.25,2.7,2.79,2.7,2.79-1.21,2.79-2.7-1.25-2.7-2.79-2.7Zm0,3.65c-.58,0-1.05-.43-1.05-.96s.47-.96,1.05-.96,1.05.43,1.05.96-.47.96-1.05.96Z"></path><path class="cls-1" d="m29.13,32.99c0,.48.39.87.87.87h11.61c.48,0,.87-.39.87-.87s-.39-.87-.87-.87h-11.61c-.48,0-.87.39-.87.87Z"></path><path class="cls-1" d="m24.42,22.73c-1.54,0-2.79,1.21-2.79,2.7s1.25,2.7,2.79,2.7,2.79-1.21,2.79-2.7-1.25-2.7-2.79-2.7Zm0,3.66c-.58,0-1.05-.43-1.05-.96s.47-.96,1.05-.96,1.05.43,1.05.96-.47.96-1.05.96h0Z"></path><path class="cls-1" d="m24.42,37.86c-1.54,0-2.79,1.21-2.79,2.7s1.25,2.7,2.79,2.7,2.79-1.21,2.79-2.7-1.25-2.7-2.79-2.7Zm0,3.65c-.58,0-1.05-.43-1.05-.96s.47-.96,1.05-.96,1.05.43,1.05.96-.47.96-1.05.96Z"></path><path class="cls-1" d="m41.61,39.74h-11.61c-.48,0-.87.39-.87.87s.39.87.87.87h11.61c.48,0,.87-.39.87-.87s-.39-.87-.87-.87Z"></path></svg> 