<?xml version="1.0" encoding="UTF-8"?> <svg xmlns="http://www.w3.org/2000/svg" id="Layer_1" data-name="Layer 1" viewBox="0 0 70 70"><defs><style> .cls-1 { fill: #8e3999; } </style></defs><path class="cls-1" d="m38.63,58.77c-1.48,0-2.69-1.21-2.69-2.69v-1.3H12.71c-.38,0-.7-.31-.7-.7V16.21c0-2.58,2.1-4.69,4.68-4.69h31.9c2.58,0,4.68,2.1,4.68,4.69v3.99c0,.38-.31.7-.7.7h-7.28v8.58h11.27c1.48,0,2.69,1.21,2.69,2.69v23.93c0,1.48-1.21,2.69-2.69,2.69h-17.94Zm0-27.91c-.71,0-1.3.58-1.3,1.3v23.93c0,.71.58,1.3,1.3,1.3h17.94c.71,0,1.3-.58,1.3-1.3v-23.93c0-.71-.58-1.3-1.3-1.3h-17.94ZM16.7,12.92c-1.81,0-3.29,1.48-3.29,3.29v37.19h22.53v-21.24c0-1.48,1.21-2.69,2.69-2.69h5.28v-.3c0-2.81-.01-5.06-.02-6.88-.04-7.42-.02-7.58.96-8.89l.36-.48h-28.52Zm31.9,0c-1.81,0-3.29,1.48-3.29,3.29v3.29h6.58v-3.29c0-1.81-1.48-3.29-3.29-3.29Z"></path><path class="cls-1" d="m40.63,42.82c-.38,0-.7-.31-.7-.7v-7.98c0-.38.31-.7.7-.7h13.96c.38,0,.7.31.7.7v7.98c0,.38-.31.7-.7.7h-13.96Zm.7-1.39h12.56v-6.58h-12.56v6.58Z"></path><path class="cls-1" d="m46.61,46.81c-.38,0-.7-.31-.7-.7s.31-.7.7-.7h1.99c.38,0,.7.31.7.7s-.31.7-.7.7h-1.99Z"></path><path class="cls-1" d="m40.63,46.81c-.38,0-.7-.31-.7-.7s.31-.7.7-.7h1.99c.38,0,.7.31.7.7s-.31.7-.7.7h-1.99Z"></path><path class="cls-1" d="m52.59,46.81c-.38,0-.7-.31-.7-.7s.31-.7.7-.7h1.99c.38,0,.7.31.7.7s-.31.7-.7.7h-1.99Z"></path><path class="cls-1" d="m46.61,50.8c-.38,0-.7-.31-.7-.7s.31-.7.7-.7h1.99c.38,0,.7.31.7.7s-.31.7-.7.7h-1.99Z"></path><path class="cls-1" d="m40.63,50.8c-.38,0-.7-.31-.7-.7s.31-.7.7-.7h1.99c.38,0,.7.31.7.7s-.31.7-.7.7h-1.99Z"></path><path class="cls-1" d="m52.59,50.8c-.38,0-.7-.31-.7-.7s.31-.7.7-.7h1.99c.38,0,.7.31.7.7s-.31.7-.7.7h-1.99Z"></path><path class="cls-1" d="m46.61,54.79c-.38,0-.7-.31-.7-.7s.31-.7.7-.7h1.99c.38,0,.7.31.7.7s-.31.7-.7.7h-1.99Z"></path><path class="cls-1" d="m40.63,54.79c-.38,0-.7-.31-.7-.7s.31-.7.7-.7h1.99c.38,0,.7.31.7.7s-.31.7-.7.7h-1.99Z"></path><path class="cls-1" d="m52.59,54.79c-.38,0-.7-.31-.7-.7s.31-.7.7-.7h1.99c.38,0,.7.31.7.7s-.31.7-.7.7h-1.99Z"></path><path class="cls-1" d="m18.7,31.86c-.38,0-.7-.31-.7-.7s.31-.7.7-.7h13.96c.38,0,.7.31.7.7s-.31.7-.7.7h-13.96Z"></path><path class="cls-1" d="m18.7,41.83c-.38,0-.7-.31-.7-.7s.31-.7.7-.7h13.96c.38,0,.7.31.7.7s-.31.7-.7.7h-13.96Z"></path><path class="cls-1" d="m18.7,21.89c-.38,0-.7-.31-.7-.7s.31-.7.7-.7h19.94c.38,0,.7.31.7.7s-.31.7-.7.7h-19.94Z"></path><path class="cls-1" d="m18.7,26.87c-.38,0-.7-.31-.7-.7s.31-.7.7-.7h19.94c.38,0,.7.31.7.7s-.31.7-.7.7h-19.94Z"></path><path class="cls-1" d="m18.7,36.84c-.38,0-.7-.31-.7-.7s.31-.7.7-.7h13.96c.38,0,.7.31.7.7s-.31.7-.7.7h-13.96Z"></path><path class="cls-1" d="m18.7,46.81c-.38,0-.7-.31-.7-.7s.31-.7.7-.7h13.96c.38,0,.7.31.7.7s-.31.7-.7.7h-13.96Z"></path></svg> 